<?xml version="1.0" encoding="UTF-8" standalone="no"?>
<!-- Created with Inkscape (http://www.inkscape.org/) -->

<svg
   xmlns:dc="http://purl.org/dc/elements/1.1/"
   xmlns:cc="http://creativecommons.org/ns#"
   xmlns:rdf="http://www.w3.org/1999/02/22-rdf-syntax-ns#"
   xmlns:svg="http://www.w3.org/2000/svg"
   xmlns="http://www.w3.org/2000/svg"
   xmlns:sodipodi="http://sodipodi.sourceforge.net/DTD/sodipodi-0.dtd"
   xmlns:inkscape="http://www.inkscape.org/namespaces/inkscape"
   width="800"
   height="300"
   viewBox="0 0 211.66668 79.375005"
   version="1.1"
   id="svg821"
   inkscape:version="0.92.4 (f8dce91, 2019-08-02)"
   sodipodi:docname="divider_right_aligned4.svg">
  <defs
     id="defs815">
    <inkscape:path-effect
       effect="bspline"
       id="path-effect9460"
       is_visible="true"
       weight="33.333333"
       steps="2"
       helper_size="0"
       apply_no_weight="true"
       apply_with_weight="true"
       only_selected="false" />
    <inkscape:path-effect
       effect="bspline"
       id="path-effect9399"
       is_visible="true"
       weight="33.333333"
       steps="2"
       helper_size="0"
       apply_no_weight="true"
       apply_with_weight="true"
       only_selected="false" />
    <inkscape:path-effect
       effect="skeletal"
       id="path-effect9383"
       is_visible="true"
       pattern="M 0,5 C 0,2.24 2.24,0 5,0 7.76,0 10,2.24 10,5 10,7.76 7.76,10 5,10 2.24,10 0,7.76 0,5 Z"
       copytype="single_stretched"
       prop_scale="0.26458335"
       scale_y_rel="false"
       spacing="0"
       normal_offset="0"
       tang_offset="0"
       prop_units="false"
       vertical_pattern="false"
       fuse_tolerance="0" />
    <inkscape:path-effect
       effect="bspline"
       id="path-effect9381"
       is_visible="true"
       weight="33.333333"
       steps="2"
       helper_size="0"
       apply_no_weight="true"
       apply_with_weight="true"
       only_selected="false" />
    <inkscape:path-effect
       effect="skeletal"
       id="path-effect3533"
       is_visible="true"
       pattern="M 0,5 C 0,2.24 2.24,0 5,0 7.76,0 10,2.24 10,5 10,7.76 7.76,10 5,10 2.24,10 0,7.76 0,5 Z"
       copytype="single_stretched"
       prop_scale="0.26458333"
       scale_y_rel="false"
       spacing="0"
       normal_offset="0"
       tang_offset="0"
       prop_units="false"
       vertical_pattern="false"
       fuse_tolerance="0" />
    <inkscape:path-effect
       effect="bspline"
       id="path-effect3531"
       is_visible="true"
       weight="33.333333"
       steps="2"
       helper_size="0"
       apply_no_weight="true"
       apply_with_weight="true"
       only_selected="false" />
  </defs>
  <sodipodi:namedview
     id="base"
     pagecolor="#ffffff"
     bordercolor="#666666"
     borderopacity="1.0"
     inkscape:pageopacity="0.0"
     inkscape:pageshadow="2"
     inkscape:zoom="1.979899"
     inkscape:cx="438.04433"
     inkscape:cy="15.151163"
     inkscape:document-units="mm"
     inkscape:current-layer="layer1"
     showgrid="false"
     inkscape:window-width="3000"
     inkscape:window-height="1823"
     inkscape:window-x="0"
     inkscape:window-y="55"
     inkscape:window-maximized="1"
     units="px" />
  <metadata
     id="metadata818">
    <rdf:RDF>
      <cc:Work
         rdf:about="">
        <dc:format>image/svg+xml</dc:format>
        <dc:type
           rdf:resource="http://purl.org/dc/dcmitype/StillImage" />
        <dc:title></dc:title>
      </cc:Work>
    </rdf:RDF>
  </metadata>
  <g
     inkscape:label="Ebene 1"
     inkscape:groupmode="layer"
     id="layer1"
     transform="translate(-0.26726956,23.236697)">
    <path
       style="fill:#00c0ff;fill-opacity:0;stroke:none;stroke-width:0.26458332px;stroke-linecap:butt;stroke-linejoin:miter;stroke-opacity:1"
       d="m 10.757876,30.636319 c -8.4e-5,-0.04131 7.797222,-0.662245 21.754317,-0.224642 3e-6,0 6e-6,0 8e-6,0 5.827572,0.180587 14.639998,0.450765 22.774147,2.329759 4.288877,0.986571 8.950713,2.770846 12.854759,5.99507 2.411831,2.01178 4.335553,4.531006 6.620234,6.592197 2.336424,2.141787 5.486867,3.366646 8.905676,4.123949 7.353396,1.602268 14.702931,1.786173 23.152043,2.10575 13.68183,0.507242 27.04782,0.606325 42.51301,0.689015 13.18604,0.07033 26.23641,0.0653 40.45183,0.05016 5.70244,-0.0063 11.72591,-0.08429 17.61293,0.04111 0.6888,0.0059 1.51305,-0.01257 2.43881,0.153966 0,0 2e-5,4e-6 2e-5,4e-6 0.37586,-0.06938 0.90247,0.408832 1.39845,1.483368 0.0326,0.659663 0.0178,1.255727 0.0454,1.784138 0.064,0.327155 -0.14726,0.776043 -0.64913,1.313786 -0.59938,0.297045 -0.96279,0.370354 -1.03906,0.319483 -1.37458,0.154874 -2.68103,0.126263 -3.91382,0.137634 -4.60366,0.05495 -9.21729,0.06705 -13.88622,0.06179 -4.82165,-0.0054 -11.6796,-0.04034 -16.50126,-0.04578 C 121.00122,57.454701 72.033048,57.2558 35.211815,56.99914 27.645991,56.946427 21.548919,56.921176 14.962275,56.775349 11.194766,56.693601 7.8941706,56.653918 4.4609265,56.209246 3.0474041,56.086334 1.3892522,55.888378 0.1481478,54.703613 c 0,0 -8.74e-6,-9e-6 -8.74e-6,-9e-6 -0.38320285,-0.415901 -0.60755512,-0.90609 -0.70280779,-1.389226 -0.11001025,-0.545321 -0.12412186,-1.059198 -0.13808814,-1.512451 -0.26739558,-7.094843 -0.43403813,-11.741709 -0.32672093,-16.8696 0.00899,-0.872427 0.0053,-1.730597 0.3106698,-2.591249 0.30149712,-0.766949 0.93915077,-1.268632 1.59918321,-1.496667 1e-8,0 5.32e-6,-1e-6 5.32e-6,-1e-6 C 2.103299,30.428001 3.4322002,30.426615 4.383752,30.409222 c 4.1742695,-0.09447 6.37408,0.202577 6.37413,0.227097 2.2e-4,0.107959 -2.2196211,0.105059 -6.3448401,0.398991 -0.9543434,0.07175 -2.2365468,0.12427 -3.2538163,0.534325 0,0 -4.5e-6,10e-7 -4.5e-6,10e-7 -0.47588284,0.193013 -0.93253044,0.564117 -1.0722122,1.051376 -0.23324739,0.670639 -0.18047729,1.4152 -0.18088616,2.316218 0.05450496,5.225501 0.32479403,9.582331 0.74022647,16.80093 0.0299213,0.468312 0.0440316,0.90917 0.13553899,1.283236 0.0737023,0.287654 0.1881316,0.553142 0.3640668,0.712751 0,0 4e-6,3e-6 4e-6,3e-6 0.674153,0.787291 2.026878,0.792314 3.4916462,1.01842 3.3334217,0.375995 6.5628768,0.357412 10.3487178,0.38667 6.672257,0.04829 12.555706,-0.0061 20.227911,-0.03995 36.822184,-0.162909 85.789866,-0.237077 140.079196,-0.191037 5.12651,0.0043 11.37438,0.03442 16.50089,0.03874 4.6632,0.0053 9.2646,-0.0051 13.85262,-0.05664 1.29806,-0.01796 2.51284,0.01754 3.64117,-0.117243 0.28711,-0.104058 0.17672,-0.0044 -0.11038,0.09962 -0.40815,0.475901 -0.59045,0.80481 -0.53206,1.019819 -0.0322,-0.661354 -0.0168,-1.257242 -0.0437,-1.784742 0.48029,0.761298 0.66359,1.100641 0.73181,0.97153 0,0 -2e-5,-3e-6 -2e-5,-3e-6 -0.52905,-0.115713 -1.20607,-0.08237 -1.99467,-0.108863 -5.82253,-0.131477 -11.83447,-0.06331 -17.5552,-0.06956 -14.15244,-0.01508 -27.33955,-0.0542 -40.4706,-0.183699 -15.42744,-0.151965 -28.90322,-0.335235 -42.58475,-0.947967 -8.423032,-0.371084 -15.922439,-0.642908 -23.496631,-2.35982 -3.625126,-0.80895 -7.067328,-2.237082 -9.747552,-4.684944 -2.435838,-2.25753 -4.292481,-4.766577 -6.487379,-6.626733 -3.553545,-3.043814 -7.96743,-4.792155 -12.079025,-5.820404 -7.866706,-1.958466 -16.665839,-2.404582 -22.45534,-2.7315 -2e-6,0 -5e-6,-1e-6 -7e-6,-1e-6 C 18.576931,30.76637 10.758291,30.839436 10.757876,30.636319 Z"
       id="path9379"
       inkscape:connector-curvature="0"
       inkscape:path-effect="#path-effect9381;#path-effect9383"
       inkscape:original-d="m 0.26726956,30.614063 c 21.38182644,-2.65e-4 42.76338944,-2.65e-4 64.14468544,0 2.762015,5.790503 5.523833,11.581414 8.285356,17.372519 5.613032,1.870658 11.225582,3.741508 16.83798,5.61266 40.089559,-2.65e-4 80.181119,-2.65e-4 120.271289,0 0.0448,-2.65e-4 0.0893,-2.65e-4 0.13363,0 2.7e-4,0.885342 2.7e-4,1.781533 0,2.672695 0.0448,-2.65e-4 0.0893,-2.65e-4 0.13363,0 -69.51986,-0.08883 -139.87078,-0.178443 -209.80657044,-0.267269 -0.0442805,-2.65e-4 -0.0888253,-2.65e-4 -0.13363476,0 -0.35821144,-8.469261 -0.71245415,-16.838245 -1.06907808,-25.25697 0.40115682,-0.04481 0.80207314,-0.08936 1.20271284,-0.133635 z" />
    <path
       style="fill:#ffffff;fill-opacity:1;stroke:#0070c0;stroke-width:0.70419043;stroke-linecap:round;stroke-linejoin:round;stroke-miterlimit:4;stroke-dasharray:none;stroke-opacity:1"
       d="m 213.81605,-10.231452 v -11.74292 l -7.48935,0.0038 c -16.75163,0.0085 -30.57287,0.639445 -39.20895,1.790017 -6.37677,0.849568 -11.00817,2.01992 -19.8737,5.02206 -2.74609,0.929912 -6.18238,2.038659 -7.6362,2.463883 -14.58481,4.2658866 -31.28979,6.0008706 -66.474096,6.9040226 -10.63986,0.273115 -42.931476,0.581885 -61.432245,0.587409 l -14.8318624,0.0044 v 3.3551209 64.2139105 l 108.4732034,-0.05535 108.4732,0.05535 z"
       id="path9468"
       inkscape:connector-curvature="0"
       sodipodi:nodetypes="ccsssssccccccc" />
  </g>
</svg>
